<svg width="17" height="13" viewBox="0 0 17 13" fill="none" xmlns="http://www.w3.org/2000/svg">
<path d="M14.9248 0.406982H1.9248C1.08105 0.406982 0.424805 1.09448 0.424805 1.90698V10.907C0.424805 11.7507 1.08105 12.407 1.9248 12.407H14.9248C15.7373 12.407 16.4248 11.7507 16.4248 10.907V1.90698C16.4248 1.09448 15.7373 0.406982 14.9248 0.406982ZM14.9248 1.90698V3.18823C14.2061 3.78198 13.0811 4.65698 10.7061 6.53198C10.1748 6.93823 9.14355 7.93823 8.4248 7.90698C7.6748 7.93823 6.64355 6.93823 6.1123 6.53198C3.7373 4.65698 2.6123 3.78198 1.9248 3.18823V1.90698H14.9248ZM1.9248 10.907V5.12573C2.6123 5.68823 3.64355 6.50073 5.1748 7.71948C5.8623 8.25073 7.08105 9.43823 8.4248 9.40698C9.7373 9.43823 10.9248 8.25073 11.6436 7.71948C13.1748 6.50073 14.2061 5.68823 14.9248 5.12573V10.907H1.9248Z" fill="#363838"/>
</svg>
