<svg width="16" height="16" viewBox="0 0 16 16" fill="none" xmlns="http://www.w3.org/2000/svg">
<path d="M15.5874 7.83203C15.5874 3.55078 12.1187 0.0820312 7.8374 0.0820312C3.55615 0.0820312 0.0874023 3.55078 0.0874023 7.83203C0.0874023 11.1445 2.11865 13.9258 4.99365 15.0508C4.93115 14.457 4.86865 13.5195 5.0249 12.832C5.18115 12.2383 5.93115 8.98828 5.93115 8.98828C5.93115 8.98828 5.7124 8.51953 5.7124 7.83203C5.7124 6.76953 6.3374 5.95703 7.11865 5.95703C7.7749 5.95703 8.0874 6.45703 8.0874 7.05078C8.0874 7.70703 7.6499 8.70703 7.43115 9.64453C7.2749 10.3945 7.8374 11.0195 8.5874 11.0195C9.9624 11.0195 11.0249 9.58203 11.0249 7.48828C11.0249 5.61328 9.68115 4.33203 7.80615 4.33203C5.5874 4.33203 4.30615 5.98828 4.30615 7.67578C4.30615 8.36328 4.55615 9.08203 4.86865 9.45703C4.93115 9.51953 4.93115 9.61328 4.93115 9.67578C4.86865 9.92578 4.7124 10.457 4.7124 10.5508C4.68115 10.707 4.5874 10.7383 4.43115 10.6758C3.4624 10.207 2.86865 8.80078 2.86865 7.64453C2.86865 5.20703 4.6499 2.95703 7.99365 2.95703C10.6812 2.95703 12.7749 4.89453 12.7749 7.45703C12.7749 10.1133 11.0874 12.2695 8.74365 12.2695C7.9624 12.2695 7.2124 11.8633 6.9624 11.3633C6.9624 11.3633 6.5874 12.8633 6.49365 13.207C6.30615 13.8945 5.8374 14.7383 5.5249 15.2383C6.24365 15.4883 7.0249 15.582 7.8374 15.582C12.1187 15.582 15.5874 12.1133 15.5874 7.83203Z" fill="#707070"/>
</svg>
