<svg width="18" height="13" viewBox="0 0 18 13" fill="none" xmlns="http://www.w3.org/2000/svg">
<path d="M17.2437 2.10107C17.0562 1.35107 16.4624 0.757324 15.7437 0.569824C14.3999 0.194824 9.0874 0.194824 9.0874 0.194824C9.0874 0.194824 3.74365 0.194824 2.3999 0.569824C1.68115 0.757324 1.0874 1.35107 0.899902 2.10107C0.524902 3.41357 0.524902 6.22607 0.524902 6.22607C0.524902 6.22607 0.524902 9.00732 0.899902 10.3511C1.0874 11.1011 1.68115 11.6636 2.3999 11.8511C3.74365 12.1948 9.0874 12.1948 9.0874 12.1948C9.0874 12.1948 14.3999 12.1948 15.7437 11.8511C16.4624 11.6636 17.0562 11.1011 17.2437 10.3511C17.6187 9.00732 17.6187 6.22607 17.6187 6.22607C17.6187 6.22607 17.6187 3.41357 17.2437 2.10107ZM7.3374 8.75732V3.69482L11.7749 6.22607L7.3374 8.75732Z" fill="#707070"/>
</svg>
