<svg width="15" height="15" viewBox="0 0 15 15" fill="none" xmlns="http://www.w3.org/2000/svg">
<path d="M7.0874 3.83984C5.0874 3.83984 3.49365 5.46484 3.49365 7.43359C3.49365 9.43359 5.0874 11.0273 7.0874 11.0273C9.05615 11.0273 10.6812 9.43359 10.6812 7.43359C10.6812 5.46484 9.05615 3.83984 7.0874 3.83984ZM7.0874 9.77734C5.80615 9.77734 4.74365 8.74609 4.74365 7.43359C4.74365 6.15234 5.7749 5.12109 7.0874 5.12109C8.36865 5.12109 9.3999 6.15234 9.3999 7.43359C9.3999 8.74609 8.36865 9.77734 7.0874 9.77734ZM11.6499 3.71484C11.6499 3.24609 11.2749 2.87109 10.8062 2.87109C10.3374 2.87109 9.9624 3.24609 9.9624 3.71484C9.9624 4.18359 10.3374 4.55859 10.8062 4.55859C11.2749 4.55859 11.6499 4.18359 11.6499 3.71484ZM14.0249 4.55859C13.9624 3.43359 13.7124 2.43359 12.8999 1.62109C12.0874 0.808594 11.0874 0.558594 9.9624 0.496094C8.80615 0.433594 5.3374 0.433594 4.18115 0.496094C3.05615 0.558594 2.0874 0.808594 1.24365 1.62109C0.431152 2.43359 0.181152 3.43359 0.118652 4.55859C0.0561523 5.71484 0.0561523 9.18359 0.118652 10.3398C0.181152 11.4648 0.431152 12.4336 1.24365 13.2773C2.0874 14.0898 3.05615 14.3398 4.18115 14.4023C5.3374 14.4648 8.80615 14.4648 9.9624 14.4023C11.0874 14.3398 12.0874 14.0898 12.8999 13.2773C13.7124 12.4336 13.9624 11.4648 14.0249 10.3398C14.0874 9.18359 14.0874 5.71484 14.0249 4.55859ZM12.5249 11.5586C12.3062 12.1836 11.8062 12.6523 11.2124 12.9023C10.2749 13.2773 8.0874 13.1836 7.0874 13.1836C6.05615 13.1836 3.86865 13.2773 2.9624 12.9023C2.3374 12.6523 1.86865 12.1836 1.61865 11.5586C1.24365 10.6523 1.3374 8.46484 1.3374 7.43359C1.3374 6.43359 1.24365 4.24609 1.61865 3.30859C1.86865 2.71484 2.3374 2.24609 2.9624 1.99609C3.86865 1.62109 6.05615 1.71484 7.0874 1.71484C8.0874 1.71484 10.2749 1.62109 11.2124 1.99609C11.8062 2.21484 12.2749 2.71484 12.5249 3.30859C12.8999 4.24609 12.8062 6.43359 12.8062 7.43359C12.8062 8.46484 12.8999 10.6523 12.5249 11.5586Z" fill="#707070"/>
</svg>
