<svg width="15" height="15" viewBox="0 0 15 15" fill="none" xmlns="http://www.w3.org/2000/svg">
<path d="M11.9624 2.85913C10.6812 1.54663 8.93115 0.796631 7.05615 0.796631C3.24365 0.796631 0.118652 3.92163 0.118652 7.73413C0.118652 8.98413 0.462402 10.1716 1.05615 11.2029L0.0874023 14.7966L3.74365 13.8591C4.7749 14.3904 5.8999 14.7029 7.05615 14.7029C10.8999 14.7029 14.0874 11.5779 14.0874 7.76538C14.0874 5.89038 13.2749 4.17163 11.9624 2.85913ZM7.05615 13.5154C6.0249 13.5154 5.0249 13.2341 4.11865 12.7029L3.93115 12.5779L1.74365 13.1716L2.3374 11.0466L2.18115 10.8279C1.61865 9.89038 1.30615 8.82788 1.30615 7.73413C1.30615 4.57788 3.8999 1.98413 7.0874 1.98413C8.61865 1.98413 10.0562 2.57788 11.1499 3.67163C12.2437 4.76538 12.8999 6.20288 12.8999 7.76538C12.8999 10.9216 10.2437 13.5154 7.05615 13.5154ZM10.2437 9.20288C10.0562 9.10913 9.2124 8.70288 9.05615 8.64038C8.8999 8.57788 8.7749 8.54663 8.6499 8.73413C8.55615 8.89038 8.2124 9.29663 8.11865 9.42163C7.99365 9.51538 7.8999 9.54663 7.74365 9.45288C6.7124 8.95288 6.05615 8.54663 5.36865 7.39038C5.18115 7.07788 5.55615 7.10913 5.86865 6.45288C5.93115 6.32788 5.8999 6.23413 5.86865 6.14038C5.8374 6.04663 5.4624 5.20288 5.3374 4.85913C5.18115 4.51538 5.05615 4.54663 4.93115 4.54663C4.8374 4.54663 4.7124 4.54663 4.61865 4.54663C4.49365 4.54663 4.30615 4.57788 4.1499 4.76538C3.99365 4.95288 3.55615 5.35913 3.55615 6.20288C3.55615 7.07788 4.1499 7.89038 4.24365 8.01538C4.3374 8.10913 5.4624 9.85913 7.2124 10.6091C8.30615 11.1091 8.74365 11.1404 9.30615 11.0466C9.61865 11.0154 10.3062 10.6404 10.4624 10.2341C10.6187 9.82788 10.6187 9.48413 10.5562 9.42163C10.5249 9.32788 10.3999 9.29663 10.2437 9.20288Z" fill="#707070"/>
</svg>
